<svg id="fa063032-1f31-4ce9-b1e7-1782bfa5ad9a" data-name="Layer 1" xmlns="http://www.w3.org/2000/svg" viewBox="0 0 368.55 267.34"><title>sticky-footer</title><rect width="368.55" height="267.34" fill="#fff"/><rect x="36.69" y="115.26" width="100.4" height="22.64" fill="#3ba3f8"/><path d="M55.62,130.78a3.7,3.7,0,0,0,1.87.53,1.45,1.45,0,0,0,1.69-1.38c0-.76-0.43-1.19-1.52-1.61-1.32-.47-2.14-1.15-2.14-2.29a2.33,2.33,0,0,1,2.61-2.19,3.68,3.68,0,0,1,1.79.4l-0.29.85a3.22,3.22,0,0,0-1.54-.38,1.31,1.31,0,0,0-1.52,1.21c0,0.76.49,1.13,1.61,1.56,1.37,0.53,2.06,1.19,2.06,2.37s-0.92,2.33-2.83,2.33a4.17,4.17,0,0,1-2.06-.52Z" transform="translate(-1.21)" fill="#fff"/><path d="M62.88,124.58v1.67h1.51V127H62.88v3.13c0,0.72.2,1.13,0.79,1.13a2.37,2.37,0,0,0,.61-0.07l0,0.79a2.58,2.58,0,0,1-.94.14,1.46,1.46,0,0,1-1.14-.44,2.15,2.15,0,0,1-.41-1.51V127H61v-0.8h0.9v-1.39Z" transform="translate(-1.21)" fill="#fff"/><path d="M66.76,124.61a0.65,0.65,0,0,1-1.31,0,0.64,0.64,0,0,1,.66-0.66A0.63,0.63,0,0,1,66.76,124.61ZM65.58,132v-5.8h1.06V132H65.58Z" transform="translate(-1.21)" fill="#fff"/><path d="M72.53,131.83a3.88,3.88,0,0,1-1.67.34,2.76,2.76,0,0,1-2.89-3,3,3,0,0,1,3.12-3.08,3.52,3.52,0,0,1,1.46.3l-0.24.82a2.45,2.45,0,0,0-1.22-.28,2.19,2.19,0,0,0,0,4.37,3,3,0,0,0,1.3-.29Z" transform="translate(-1.21)" fill="#fff"/><path d="M74.81,128.91h0c0.14-.2.35-0.46,0.52-0.66l1.7-2h1.27l-2.24,2.39L78.64,132H77.35l-2-2.78-0.54.6V132h-1v-8.52h1v5.37Z" transform="translate(-1.21)" fill="#fff"/><path d="M79.93,126.24l1.27,3.43c0.13,0.38.28,0.84,0.37,1.19h0c0.11-.35.23-0.79,0.37-1.21l1.15-3.41h1.12l-1.58,4.14c-0.76,2-1.27,3-2,3.63a2.85,2.85,0,0,1-1.29.68l-0.26-.89A2.79,2.79,0,0,0,80,133.3a3.19,3.19,0,0,0,.89-1.18,0.76,0.76,0,0,0,.08-0.25,0.92,0.92,0,0,0-.07-0.28l-2.15-5.35h1.15Z" transform="translate(-1.21)" fill="#fff"/><path d="M87.78,124h4.35v0.88H88.83v2.69h3.06v0.86H88.83V132h-1V124Z" transform="translate(-1.21)" fill="#fff"/><path d="M98.47,129.1a2.84,2.84,0,0,1-2.89,3.08,2.76,2.76,0,0,1-2.78-3,2.83,2.83,0,0,1,2.88-3.08A2.75,2.75,0,0,1,98.47,129.1Zm-4.61.06a1.81,1.81,0,1,0,3.53,0c0-1-.49-2.23-1.74-2.23S93.87,128.06,93.87,129.16Z" transform="translate(-1.21)" fill="#fff"/><path d="M105.06,129.1a2.84,2.84,0,0,1-2.89,3.08,2.76,2.76,0,0,1-2.78-3,2.83,2.83,0,0,1,2.88-3.08A2.75,2.75,0,0,1,105.06,129.1Zm-4.61.06a1.81,1.81,0,1,0,3.53,0c0-1-.49-2.23-1.74-2.23S100.45,128.06,100.45,129.16Z" transform="translate(-1.21)" fill="#fff"/><path d="M107.67,124.58v1.67h1.51V127h-1.51v3.13c0,0.72.2,1.13,0.79,1.13a2.36,2.36,0,0,0,.61-0.07l0,0.79a2.58,2.58,0,0,1-.94.14,1.46,1.46,0,0,1-1.14-.44,2.15,2.15,0,0,1-.41-1.51V127h-0.9v-0.8h0.9v-1.39Z" transform="translate(-1.21)" fill="#fff"/><path d="M110.88,129.34a1.86,1.86,0,0,0,2,2,3.81,3.81,0,0,0,1.61-.3l0.18,0.76a4.7,4.7,0,0,1-1.93.36,2.7,2.7,0,0,1-2.85-2.93c0-1.75,1-3.13,2.72-3.13a2.46,2.46,0,0,1,2.4,2.73,4,4,0,0,1,0,.49h-4.08Zm3.09-.76a1.5,1.5,0,0,0-1.46-1.71,1.75,1.75,0,0,0-1.62,1.71H114Z" transform="translate(-1.21)" fill="#fff"/><path d="M116.31,128.06c0-.68,0-1.27,0-1.81h0.92l0,1.14h0a1.74,1.74,0,0,1,1.61-1.27,1.14,1.14,0,0,1,.3,0v1a1.59,1.59,0,0,0-.36,0,1.48,1.48,0,0,0-1.42,1.36,3,3,0,0,0,0,.49V132h-1v-4Z" transform="translate(-1.21)" fill="#fff"/><rect x="36.69" y="22.18" width="100.4" height="70.16" fill="#c2ffa9"/><rect x="15.73" y="22.18" width="143.55" height="116.53" fill="none" stroke="#000" stroke-miterlimit="10"/><rect x="227.02" y="221.71" width="100.4" height="22.64" fill="#3ba3f8"/><path d="M245.94,237.23a3.7,3.7,0,0,0,1.87.53,1.45,1.45,0,0,0,1.69-1.38c0-.76-0.43-1.19-1.52-1.61-1.32-.47-2.14-1.15-2.14-2.29a2.33,2.33,0,0,1,2.61-2.2,3.68,3.68,0,0,1,1.79.4l-0.29.85a3.22,3.22,0,0,0-1.54-.38,1.31,1.31,0,0,0-1.52,1.21c0,0.75.49,1.13,1.61,1.56,1.37,0.53,2.06,1.19,2.06,2.38s-0.92,2.33-2.83,2.33a4.17,4.17,0,0,1-2.06-.52Z" transform="translate(-1.21)" fill="#fff"/><path d="M253.2,231v1.67h1.51v0.8H253.2v3.13c0,0.72.2,1.13,0.79,1.13a2.39,2.39,0,0,0,.61-0.07l0,0.79a2.58,2.58,0,0,1-.94.14,1.46,1.46,0,0,1-1.14-.44,2.15,2.15,0,0,1-.41-1.51V233.5h-0.9v-0.8h0.9V231.3Z" transform="translate(-1.21)" fill="#fff"/><path d="M257.08,231.06a0.65,0.65,0,0,1-1.31,0,0.64,0.64,0,0,1,.66-0.66A0.63,0.63,0,0,1,257.08,231.06Zm-1.18,7.44v-5.8H257v5.8H255.9Z" transform="translate(-1.21)" fill="#fff"/><path d="M262.85,238.28a3.89,3.89,0,0,1-1.67.34,2.76,2.76,0,0,1-2.89-3,3,3,0,0,1,3.12-3.08,3.52,3.52,0,0,1,1.46.3l-0.24.82a2.45,2.45,0,0,0-1.22-.28,2.19,2.19,0,0,0,0,4.37,3,3,0,0,0,1.3-.29Z" transform="translate(-1.21)" fill="#fff"/><path d="M265.13,235.36h0c0.14-.2.35-0.46,0.52-0.66l1.7-2h1.27l-2.24,2.39L269,238.5h-1.28l-2-2.78-0.54.6v2.18h-1V230h1v5.37Z" transform="translate(-1.21)" fill="#fff"/><path d="M270.26,232.7l1.27,3.43c0.13,0.38.28,0.84,0.37,1.19h0c0.11-.35.23-0.79,0.37-1.21l1.15-3.41h1.12L273,236.83c-0.76,2-1.27,3-2,3.63a2.85,2.85,0,0,1-1.29.68l-0.26-.89a2.8,2.8,0,0,0,.92-0.52,3.2,3.2,0,0,0,.89-1.18,0.76,0.76,0,0,0,.08-0.25,0.92,0.92,0,0,0-.07-0.28l-2.15-5.35h1.15Z" transform="translate(-1.21)" fill="#fff"/><path d="M278.1,230.42h4.35v0.88h-3.31V234h3.06v0.86h-3.06v3.66h-1v-8.08Z" transform="translate(-1.21)" fill="#fff"/><path d="M288.79,235.55a2.84,2.84,0,0,1-2.89,3.08,2.76,2.76,0,0,1-2.78-3,2.83,2.83,0,0,1,2.88-3.08A2.75,2.75,0,0,1,288.79,235.55Zm-4.61.06a1.81,1.81,0,1,0,3.53,0c0-1-.49-2.23-1.74-2.23S284.19,234.51,284.19,235.61Z" transform="translate(-1.21)" fill="#fff"/><path d="M295.38,235.55a2.84,2.84,0,0,1-2.89,3.08,2.76,2.76,0,0,1-2.78-3,2.83,2.83,0,0,1,2.88-3.08A2.75,2.75,0,0,1,295.38,235.55Zm-4.61.06a1.81,1.81,0,1,0,3.53,0c0-1-.49-2.23-1.74-2.23S290.78,234.51,290.78,235.61Z" transform="translate(-1.21)" fill="#fff"/><path d="M298,231v1.67h1.51v0.8H298v3.13c0,0.72.2,1.13,0.79,1.13a2.39,2.39,0,0,0,.61-0.07l0,0.79a2.58,2.58,0,0,1-.94.14,1.46,1.46,0,0,1-1.14-.44,2.15,2.15,0,0,1-.41-1.51V233.5h-0.9v-0.8H297V231.3Z" transform="translate(-1.21)" fill="#fff"/><path d="M301.2,235.79a1.86,1.86,0,0,0,2,2,3.81,3.81,0,0,0,1.61-.3l0.18,0.76a4.7,4.7,0,0,1-1.93.36,2.7,2.7,0,0,1-2.85-2.93c0-1.75,1-3.13,2.72-3.13a2.46,2.46,0,0,1,2.4,2.73,4,4,0,0,1,0,.49H301.2Zm3.09-.76a1.5,1.5,0,0,0-1.46-1.71,1.75,1.75,0,0,0-1.62,1.71h3.08Z" transform="translate(-1.21)" fill="#fff"/><path d="M306.63,234.51c0-.68,0-1.27,0-1.81h0.92l0,1.14h0a1.74,1.74,0,0,1,1.61-1.27,1.16,1.16,0,0,1,.3,0v1a1.56,1.56,0,0,0-.36,0,1.48,1.48,0,0,0-1.42,1.36,3,3,0,0,0,0,.49v3.09h-1v-4Z" transform="translate(-1.21)" fill="#fff"/><rect x="227.02" y="22.18" width="100.4" height="199.36" fill="#c2ffa9"/><rect x="206.05" y="22.18" width="143.55" height="116.53" fill="none" stroke="#000" stroke-miterlimit="10"/></svg>